# Blender 4.4.3
# www.blender.org
mtllib colored_dodecahedron.mtl
o dodecahedron
v 0.000000 0.000000 1.070466
v 0.713644 0.000000 0.797878
v -0.356822 0.618034 0.797878
v -0.356822 -0.618034 0.797878
v 0.797878 0.618034 0.356822
v 0.797878 -0.618034 0.356822
v -0.934172 0.381966 0.356822
v 0.136294 1.000000 0.356822
v 0.136294 -1.000000 0.356822
v -0.934172 -0.381966 0.356822
v 0.934172 0.381966 -0.356822
v 0.934172 -0.381966 -0.356822
v -0.797878 0.618034 -0.356822
v -0.136294 1.000000 -0.356822
v -0.136294 -1.000000 -0.356822
v -0.797878 -0.618034 -0.356822
v 0.356822 0.618034 -0.797878
v 0.356822 -0.618034 -0.797878
v -0.713644 -0.000000 -0.797878
v 0.000000 -0.000000 -1.070466
vn 0.3035 0.5257 0.7947
vn -0.6071 -0.0000 0.7947
vn 0.3035 -0.5257 0.7947
vn 0.9822 -0.0000 0.1876
vn -0.4911 0.8507 0.1876
vn -0.4911 -0.8507 0.1876
vn 0.4911 0.8507 -0.1876
vn 0.4911 -0.8507 -0.1876
vn -0.9822 -0.0000 -0.1876
vn 0.6071 -0.0000 -0.7947
vn -0.3035 0.5257 -0.7947
vn -0.3035 -0.5257 -0.7947
s 0
usemtl Material.004
f 2//1 8//1 3//1
f 3//2 10//2 4//2
f 4//3 6//3 2//3
f 6//4 11//4 5//4
f 8//5 13//5 7//5
f 10//6 15//6 9//6
f 11//7 14//7 8//7
f 9//8 18//8 12//8
f 13//9 16//9 10//9
f 12//10 20//10 17//10
f 14//11 20//11 19//11
f 16//12 20//12 18//12
f 3//1 1//1 2//1
f 2//1 5//1 8//1
f 4//2 1//2 3//2
f 3//2 7//2 10//2
f 2//3 1//3 4//3
f 4//3 9//3 6//3
f 5//4 2//4 6//4
f 6//4 12//4 11//4
f 7//5 3//5 8//5
f 8//5 14//5 13//5
f 9//6 4//6 10//6
f 10//6 16//6 15//6
f 8//7 5//7 11//7
f 11//7 17//7 14//7
f 12//8 6//8 9//8
f 9//8 15//8 18//8
f 10//9 7//9 13//9
f 13//9 19//9 16//9
f 17//10 11//10 12//10
f 12//10 18//10 20//10
f 19//11 13//11 14//11
f 14//11 17//11 20//11
f 18//12 15//12 16//12
f 16//12 19//12 20//12
