# Blender 4.4.3
# www.blender.org
mtllib pentagonal_bipyramid.mtl
o pentagonal_bipyramid
v -1.030571 0.016360 -0.390007
v -0.689608 -0.011526 0.859510
v -0.005641 -0.680926 -0.013658
v 0.052680 0.021637 -1.100548
v 0.005640 0.680926 0.013658
v 0.604369 -0.023483 0.921213
v 1.063129 -0.002988 -0.290168
vn -0.3395 -0.7815 -0.5234
vn -0.5922 -0.7928 0.1439
vn -0.0356 -0.8064 0.5903
vn -0.3263 0.8074 -0.4915
vn -0.5791 0.7961 0.1758
vn -0.0224 0.7825 0.6222
vn 0.3733 -0.7881 -0.4894
vn 0.3865 0.8008 -0.4575
vn 0.5611 -0.8035 0.1989
vn 0.5743 0.7855 0.2308
s 0
f 4//1 3//1 1//1
f 3//2 2//2 1//2
f 3//3 6//3 2//3
f 1//4 5//4 4//4
f 1//5 2//5 5//5
f 5//6 2//6 6//6
f 3//7 4//7 7//7
f 4//8 5//8 7//8
f 6//9 3//9 7//9
f 5//10 6//10 7//10
