# Blender 4.4.3
# www.blender.org
mtllib triangle_ring.mtl
o Torus.003
v 1.500000 0.000000 0.000000
v 1.250000 0.433013 0.000000
v 0.750000 0.433013 0.000000
v 0.500000 0.000000 0.000000
v 0.750000 -0.433013 0.000000
v 1.250000 -0.433013 0.000000
v -0.750000 0.000000 -1.299038
v -0.625000 0.433013 -1.082532
v -0.375000 0.433013 -0.649519
v -0.250000 0.000000 -0.433013
v -0.375000 -0.433013 -0.649519
v -0.625000 -0.433013 -1.082532
v -0.750000 0.000000 1.299038
v -0.625000 0.433013 1.082532
v -0.375000 0.433013 0.649519
v -0.250000 0.000000 0.433013
v -0.375000 -0.433013 0.649519
v -0.625000 -0.433013 1.082532
vn 0.4804 0.2774 -0.8321
vn -0.0000 1.0000 -0.0000
vn -0.4804 0.2774 0.8321
vn -0.4804 -0.2774 0.8321
vn -0.0000 -1.0000 -0.0000
vn 0.4804 -0.2774 -0.8321
vn -0.9608 0.2773 -0.0000
vn 0.9608 0.2773 -0.0000
vn 0.9608 -0.2774 -0.0000
vn -0.9608 -0.2773 -0.0000
vn 0.4804 0.2774 0.8321
vn -0.4804 0.2774 -0.8321
vn -0.4804 -0.2774 -0.8321
vn 0.4804 -0.2774 0.8321
vn 0.9608 0.2774 -0.0000
vn 0.4804 -0.2773 0.8321
vt 0.666667 0.500000
vt 1.000000 0.666667
vt 0.666667 0.666667
vt 1.000000 0.833333
vt 0.666667 0.833333
vt 0.666667 1.000000
vt 1.000000 -0.000000
vt 0.666667 0.166667
vt 0.666667 -0.000000
vt 1.000000 0.333333
vt 0.666667 0.333333
vt 0.333333 0.500000
vt 0.000000 0.666667
vt 0.000000 0.500000
vt 0.333333 0.666667
vt 0.000000 0.833333
vt 0.333333 0.833333
vt 0.000000 1.000000
vt 0.333333 -0.000000
vt 0.000000 0.166667
vt 0.000000 -0.000000
vt 0.333333 0.166667
vt 0.000000 0.333333
vt 0.333333 0.333333
vt 0.333333 1.000000
vt 1.000000 0.500000
vt 1.000000 1.000000
vt 1.000000 0.166667
s 0
f 1/1/1 8/2/1 2/3/1
f 2/3/2 9/4/2 3/5/2
f 9/4/3 4/6/3 3/5/3
f 10/7/4 5/8/4 4/9/4
f 5/8/5 12/10/5 6/11/5
f 12/10/6 1/1/6 6/11/6
f 13/12/7 8/13/7 7/14/7
f 14/15/2 9/16/2 8/13/2
f 15/17/8 10/18/8 9/16/8
f 16/19/9 11/20/9 10/21/9
f 17/22/5 12/23/5 11/20/5
f 18/24/10 7/14/10 12/23/10
f 1/1/11 14/15/11 13/12/11
f 2/3/2 15/17/2 14/15/2
f 15/17/12 4/6/12 16/25/12
f 4/9/13 17/22/13 16/19/13
f 5/8/5 18/24/5 17/22/5
f 6/11/14 13/12/14 18/24/14
f 1/1/1 7/26/1 8/2/1
f 2/3/2 8/2/2 9/4/2
f 9/4/3 10/27/3 4/6/3
f 10/7/4 11/28/4 5/8/4
f 5/8/5 11/28/5 12/10/5
f 12/10/6 7/26/6 1/1/6
f 13/12/7 14/15/7 8/13/7
f 14/15/2 15/17/2 9/16/2
f 15/17/15 16/25/15 10/18/15
f 16/19/9 17/22/9 11/20/9
f 17/22/5 18/24/5 12/23/5
f 18/24/10 13/12/10 7/14/10
f 1/1/11 2/3/11 14/15/11
f 2/3/2 3/5/2 15/17/2
f 15/17/12 3/5/12 4/6/12
f 4/9/13 5/8/13 17/22/13
f 5/8/5 6/11/5 18/24/5
f 6/11/16 1/1/16 13/12/16
